<svg xmlns="http://www.w3.org/2000/svg" viewBox="0 0 45 45"><defs><linearGradient id="gw" x1="0" y1="0" x2="1" y2="0"><stop offset="0" stop-color="#8a7f63"/><stop offset=".3" stop-color="#fffdf4"/><stop offset=".5" stop-color="#ffffff"/><stop offset=".7" stop-color="#efe8d2"/><stop offset="1" stop-color="#8a7f63"/></linearGradient><filter id="soft" x="-40%" y="-40%" width="180%" height="180%"><feGaussianBlur stdDeviation="1.6"/></filter><clipPath id="cl"><path d="M22.5 25s4.5-7.5 3-10.5c0 0-1-2.5-3-2.5s-3 2.5-3 2.5c-1.5 3 3 10.5 3 10.5"/><path d="M11.5 37c5.5 3.5 15.5 3.5 21 0v-7s9-4.5 6-10.5c-4-6.5-13.5-3.5-16 4V27v-3.5c-3.5-7.5-13-10.5-16-4-3 6 5 10 5 10z"/></clipPath></defs><g fill="none" fill-rule="evenodd" stroke="#000" stroke-linecap="round" stroke-linejoin="round" stroke-width="1.5"><path stroke-linejoin="miter" d="M22.5 11.63V6M20 8h5"/><path fill="url(#gw)" stroke-linecap="butt" stroke-linejoin="miter" d="M22.5 25s4.5-7.5 3-10.5c0 0-1-2.5-3-2.5s-3 2.5-3 2.5c-1.5 3 3 10.5 3 10.5"/><path fill="url(#gw)" d="M11.5 37c5.5 3.5 15.5 3.5 21 0v-7s9-4.5 6-10.5c-4-6.5-13.5-3.5-16 4V27v-3.5c-3.5-7.5-13-10.5-16-4-3 6 5 10 5 10z"/><path d="M11.5 30c5.5-3 15.5-3 21 0m-21 3.5c5.5-3 15.5-3 21 0m-21 3.5c5.5-3 15.5-3 21 0"/><g clip-path="url(#cl)"><ellipse cx="15" cy="13" rx="4.5" ry="13" fill="#ffffff" opacity="0.55" filter="url(#soft)"/></g></g></svg>